<svg width="51" height="39" viewBox="0 0 51 39" fill="none" xmlns="http://www.w3.org/2000/svg">
<path d="M1.50852 37H0.190341L2.19886 31.1818H3.78409L5.78977 37H4.47159L3.0142 32.5114H2.96875L1.50852 37ZM1.42614 34.7131H4.53977V35.6733H1.42614V34.7131ZM13.2081 31.1818V37H12.1456L9.61435 33.3381H9.57173V37H8.34162V31.1818H9.42116L11.9325 34.8409H11.9837V31.1818H13.2081ZM15.8544 32.196V31.1818H20.6328V32.196H18.8516V37H17.6357V32.196H15.8544ZM23.2713 37V31.1818H24.5014V33.5824H26.9986V31.1818H28.2259V37H26.9986V34.5966H24.5014V37H23.2713ZM31.0916 37V31.1818H35.0121V32.196H32.3217V33.5824H34.8104V34.5966H32.3217V35.9858H35.0234V37H31.0916ZM37.8416 37V31.1818H40.1371C40.5765 31.1818 40.9515 31.2604 41.2621 31.4176C41.5746 31.5729 41.8123 31.7936 41.9751 32.0795C42.1399 32.3636 42.2223 32.6979 42.2223 33.0824C42.2223 33.4687 42.139 33.8011 41.9723 34.0795C41.8056 34.3561 41.5642 34.5682 41.2479 34.7159C40.9335 34.8636 40.5528 34.9375 40.1058 34.9375H38.5689V33.9489H39.907C40.1418 33.9489 40.3369 33.9167 40.4922 33.8523C40.6475 33.7879 40.763 33.6913 40.8388 33.5625C40.9164 33.4337 40.9553 33.2737 40.9553 33.0824C40.9553 32.8892 40.9164 32.7263 40.8388 32.5938C40.763 32.4612 40.6465 32.3608 40.4893 32.2926C40.334 32.2225 40.138 32.1875 39.9013 32.1875H39.0717V37H37.8416ZM40.9837 34.3523L42.4297 37H41.0717L39.657 34.3523H40.9837ZM45.946 37H44.6278L46.6364 31.1818H48.2216L50.2273 37H48.9091L47.4517 32.5114H47.4062L45.946 37ZM45.8636 34.7131H48.9773V35.6733H45.8636V34.7131Z" fill="#1262FB"/>
<path d="M49.385 9.16003L44.925 6.74103L46.673 5.60101L49.385 9.16003Z" fill="#0945B7"/>
<path d="M30.12 11.676H26.561L39.602 25.483L30.12 11.676Z" fill="#0E48B5"/>
<path d="M41.984 20.49L25.544 11.677V25.066L39.544 25.302L41.984 20.49Z" fill="#0945B7"/>
<path d="M42.824 20.275L35.201 5.51196V9.94598L37.516 18.659L42.824 20.275Z" fill="#0945B7"/>
<path d="M37.069 7.80402L42.662 0.515991H38.594L35.204 6.10901L37.069 7.80402Z" fill="#0945B7"/>
<path d="M44.979 6.78705L40.233 2.38L42.533 0.569031L44.978 1.19403L46.673 5.60101L44.979 6.78705Z" fill="#0945B7"/>
<path d="M3.34198 21.167L14.528 25.404H39.781L30.541 21.167H3.34198Z" fill="#1262FB"/>
<path d="M22.748 7.26996L14.148 5.88898L39.528 25.4839L22.748 7.26996Z" fill="#1262FB"/>
<path d="M14.359 9.47296L5.81402 9.82294L39.603 25.329L14.359 5.74493V9.47296Z" fill="#1262FB"/>
<path d="M37.443 18L39.543 25.4L42.83 20.15L37.443 18Z" fill="#1262FB"/>
<path d="M41.646 1.70197L35.206 5.65997L36.672 9.35999L41.646 1.70197Z" fill="#1262FB"/>
<path d="M14.189 5.74402V9.64404L39.612 25.576L14.189 5.74402Z" fill="#04338D"/>
<path d="M39.577 25.461L6.03601 9.47198L14.849 24.048L39.577 25.461Z" fill="#0945B7"/>
</svg>
