<svg width="47" height="26" viewBox="0 0 47 26" fill="none" xmlns="http://www.w3.org/2000/svg">
<path d="M46.385 9.16003L41.925 6.74103L43.673 5.60101L46.385 9.16003Z" fill="#0945B7"/>
<path d="M27.12 11.676H23.561L36.602 25.483L27.12 11.676Z" fill="#0E48B5"/>
<path d="M38.984 20.49L22.544 11.677V25.066L36.544 25.302L38.984 20.49Z" fill="#0945B7"/>
<path d="M39.824 20.275L32.201 5.51196V9.94598L34.516 18.659L39.824 20.275Z" fill="#0945B7"/>
<path d="M34.069 7.80402L39.662 0.515991H35.594L32.204 6.10901L34.069 7.80402Z" fill="#0945B7"/>
<path d="M41.979 6.78705L37.233 2.38L39.533 0.569031L41.978 1.19403L43.673 5.60101L41.979 6.78705Z" fill="#0945B7"/>
<path d="M0.34198 21.167L11.528 25.404H36.781L27.541 21.167H0.34198Z" fill="#1262FB"/>
<path d="M19.748 7.26996L11.148 5.88898L36.528 25.4839L19.748 7.26996Z" fill="#1262FB"/>
<path d="M11.359 9.47296L2.81402 9.82294L36.603 25.329L11.359 5.74493V9.47296Z" fill="#1262FB"/>
<path d="M34.443 18L36.543 25.4L39.83 20.15L34.443 18Z" fill="#1262FB"/>
<path d="M38.646 1.70197L32.206 5.65997L33.672 9.35999L38.646 1.70197Z" fill="#1262FB"/>
<path d="M11.189 5.74402V9.64404L36.612 25.576L11.189 5.74402Z" fill="#04338D"/>
<path d="M36.577 25.461L3.03601 9.47198L11.849 24.048L36.577 25.461Z" fill="#0945B7"/>
</svg>
