<svg width="47" height="26" viewBox="0 0 47 26" fill="none" xmlns="http://www.w3.org/2000/svg">
<path d="M46.043 8.64398L41.583 6.22498L43.3311 5.08496L46.043 8.64398Z" fill="#D9D9D9"/>
<path d="M26.778 11.16H23.219L36.26 24.967L26.778 11.16Z" fill="#D9D9D9"/>
<path d="M38.642 19.974L22.202 11.161V24.55L36.202 24.786L38.642 19.974Z" fill="#D9D9D9"/>
<path d="M39.482 19.759L31.859 4.99597V9.42999L34.174 18.143L39.482 19.759Z" fill="#D9D9D9"/>
<path d="M33.727 7.28802L39.32 0H35.252L31.862 5.59302L33.727 7.28802Z" fill="#D9D9D9"/>
<path d="M41.637 6.271L36.891 1.86395L39.191 0.0529785L41.636 0.677979L43.331 5.08496L41.637 6.271Z" fill="#D9D9D9"/>
<path d="M0 20.651L11.186 24.888H36.439L27.199 20.651H0Z" fill="#E0E2E3"/>
<path d="M19.4061 6.75403L10.806 5.37305L36.186 24.968L19.4061 6.75403Z" fill="#E0E2E3"/>
<path d="M11.017 8.95703L2.47205 9.30701L36.261 24.813L11.017 5.229V8.95703Z" fill="#E0E2E3"/>
<path d="M34.1011 17.484L36.201 24.884L39.488 19.634L34.1011 17.484Z" fill="#E0E2E3"/>
<path d="M38.304 1.18604L31.864 5.14404L33.33 8.84406L38.304 1.18604Z" fill="#E0E2E3"/>
<path d="M10.847 5.22803V9.12805L36.27 25.0601L10.847 5.22803Z" fill="#D9D9D9"/>
<path d="M36.235 24.9449L2.69403 8.95593L11.507 23.532L36.235 24.9449Z" fill="#D9D9D9"/>
</svg>
